PathFileType	4	(X/Y/Z)	C:/Users/opensim2020/Desktop/walking_exp_matlab/subject06_walking21_straight_02.trc																																																																																																																																		
DataRate	CameraRate	NumFrames	NumMarkers	Units	OrigDataRate	OrigDataStartFrame	OrigNumFrames																																																																																																																														
100	100	4	44	mm	100	1325	172																																																																																																																														
Frame#	Time	LFHD			RFHD			LBHD			RBHD			C7			T10			CLAV			STRN			RBAK			LSHO			LUPA			LELB			LFRM			LWRA			LWRB			LFIN			RSHO			RUPA			RELB			RFRM			RWRA			RWRB			RFIN			LASI			RASI			LPSI			RPSI			LTHI			LKNE			LTIB			LANK			LHEE			LTOE			RTHI			RKNE			RTIB			RANK			RHEE			RTOE			*39			*40			*41			*42			*43		
		X1	Y1	Z1	X2	Y2	Z2	X3	Y3	Z3	X4	Y4	Z4	X5	Y5	Z5	X6	Y6	Z6	X7	Y7	Z7	X8	Y8	Z8	X9	Y9	Z9	X10	Y10	Z10	X11	Y11	Z11	X12	Y12	Z12	X13	Y13	Z13	X14	Y14	Z14	X15	Y15	Z15	X16	Y16	Z16	X17	Y17	Z17	X18	Y18	Z18	X19	Y19	Z19	X20	Y20	Z20	X21	Y21	Z21	X22	Y22	Z22	X23	Y23	Z23	X24	Y24	Z24	X25	Y25	Z25	X26	Y26	Z26	X27	Y27	Z27	X28	Y28	Z28	X29	Y29	Z29	X30	Y30	Z30	X31	Y31	Z31	X32	Y32	Z32	X33	Y33	Z33	X34	Y34	Z34	X35	Y35	Z35	X36	Y36	Z36	X37	Y37	Z37	X38	Y38	Z38	X39	Y39	Z39	X40	Y40	Z40	X41	Y41	Z41	X42	Y42	Z42	X43	Y43	Z43	X44	Y44	Z44
																																																																																																																																					
65	0.64	-647.84369	1671.57776	-1530.96082	-656.95746	1658.38049	-1400.31079	-779.84644	1614.49487	-1542.25903	-787.59821	1606.77783	-1414.0896	-781.28101	1455.62561	-1484.92419	-810.45844	1127.02124	-1467.42676	-668.73303	1381.30615	-1477.79834	-626.63123	1207.40295	-1482.03259	-854.68604	1285.30872	-1407.51672	-719.60474	1410.25488	-1642.08276	-708.85968	1208.47888	-1714.52222	-705.77094	1095.69202	-1727.72791	-659.31171	953.80286	-1752.27429	-577.30481	851.06171	-1714.21057	-638.19177	836.32813	-1748.35071	-584.09192	763.59613	-1752.63965	-724.93475	1412.53918	-1319.2616	-781.25403	1216.97498	-1235.61572	-783.24738	1094.82959	-1224.6991	-781.74188	974.78223	-1204.76282	-732.97595	828.98083	-1227.40491	-790.82813	837.27771	-1193.49255	-764.26367	756.81903	-1188.23328	-633.375	973.34387	-1578.24426	-632.42383	975.69244	-1359.78467	-790.72833	996.41199	-1544.77002	-780.83075	991.73767	-1378.02014	-702.19891	657.46069	-1631.72021	-708.92523	493.03064	-1608.79285	-767.61865	241.02701	-1599.86279	-786.95618	70.22644	-1551.17993	-830.68121	57.21128	-1508.76831	-643.77887	40.68653	-1539.27063	-593.06909	648.013	-1301.81665	-539.80164	534.06555	-1325.04053	-663.35248	308.55109	-1338.8158	-767.8902	157.92171	-1388.27246	-815.61206	154.34549	-1433.82703	-651.26782	61.6414	-1396.36096	-753.37909	1706.80603	-1479.15234	NaN	NaN	NaN	NaN	NaN	NaN	NaN	NaN	NaN	NaN	NaN	NaN
66	0.65	-634.6026	1670.45325	-1530.95801	-643.82056	1657.14465	-1400.31787	-766.79132	1613.73523	-1542.42798	-774.57129	1605.85767	-1414.21216	-768.67053	1454.74915	-1485.26184	-798.28009	1126.04138	-1467.77576	-656.29242	1380.27295	-1478.3291	-614.49658	1206.31287	-1482.89856	-842.2453	1284.32434	-1408.23889	-707.36847	1409.51758	-1642.55286	-694.24017	1207.98511	-1715.38501	-688.61053	1095.33435	-1729.06226	-637.51752	955.04694	-1753.75818	-551.25519	855.79547	-1715.89819	-611.94196	838.52783	-1749.33704	-554.9776	768.02954	-1753.9834	-712.35693	1411.27832	-1319.60193	-770.37372	1216.14209	-1236.15356	-773.48053	1094.06726	-1225.3064	-774.2301	974.07257	-1205.17285	-728.4425	827.2536	-1227.35815	-786.17523	836.67163	-1193.70911	-761.38824	755.71405	-1188.36963	-622.43579	972.06915	-1579.6864	-619.56476	974.96643	-1361.2373	-779.19403	995.33563	-1544.84607	-768.09601	990.87738	-1378.11243	-694.11719	656.48315	-1632.04236	-703.03381	492.07391	-1609.00745	-764.27106	240.5847	-1599.74561	-786.31464	70.3745	-1550.67627	-830.19141	57.69632	-1508.25854	-643.20447	40.55657	-1539.28455	-576.83624	649.198	-1302.21436	-523.14954	535.70319	-1326.45325	-637.54413	304.44412	-1339.2616	-733.14679	147.81004	-1388.4259	-779.93219	141.16356	-1434.28015	-611.32874	58.20175	-1394	-740.12073	1705.96436	-1479.09326	NaN	NaN	NaN	NaN	NaN	NaN	NaN	NaN	NaN	NaN	NaN	NaN
67	0.66	-621.32776	1669.19958	-1530.95935	-630.62622	1655.67578	-1400.33789	-753.33484	1612.61096	-1542.16675	-761.51062	1604.71228	-1414.23999	-755.99524	1453.66077	-1485.50293	-786.02789	1124.86011	-1468.15149	-643.80615	1378.97424	-1478.78149	-602.28632	1204.99316	-1483.79016	-829.76306	1283.17175	-1408.88403	-694.99878	1408.54187	-1642.94983	-679.70605	1207.29053	-1716.1593	-671.57507	1094.77124	-1730.26721	-615.80743	956.35583	-1755.02979	-525.51917	860.73438	-1717.39941	-585.08533	840.24011	-1749.36169	-526.12756	772.74713	-1754.99524	-699.66815	1409.81482	-1319.90967	-759.35101	1215.10449	-1236.69727	-763.67444	1093.13574	-1225.73621	-766.41553	973.1748	-1205.44153	-723.41364	825.44354	-1227.21704	-781.08374	835.98022	-1193.73914	-757.76251	754.43805	-1188.4071	-611.04852	970.67719	-1581.13074	-606.61084	974.04169	-1362.58484	-767.54449	994.06122	-1544.9502	-755.26862	989.77374	-1378.28076	-685.70825	655.27979	-1632.22473	-696.77344	490.97128	-1608.98547	-760.74176	240.04808	-1599.7019	-785.49402	70.45835	-1550.07324	-829.89996	58.33686	-1507.64844	-642.80157	40.31079	-1539.23792	-561.21136	650.00916	-1302.61816	-506.70956	536.80493	-1327.4458	-611.75861	299.9574	-1339.63086	-698.15356	137.66882	-1387.96753	-743.95679	128.10443	-1434.40149	-571.2287	55.07177	-1391.96252	-726.79645	1704.81726	-1479.0636	NaN	NaN	NaN	NaN	NaN	NaN	NaN	NaN	NaN	NaN	NaN	NaN
68	0.67	-608.00165	1667.70752	-1530.82361	-617.44733	1654.05591	-1400.22498	-740.48541	1611.55933	-1542.50525	-748.41132	1603.37659	-1414.33984	-743.25592	1452.39917	-1485.74194	-773.63184	1123.53174	-1468.46899	-631.21429	1377.48132	-1479.19946	-589.92542	1203.4884	-1484.59863	-817.2207	1281.80103	-1409.4137	-682.51367	1407.36804	-1643.2804	-665.27637	1206.40979	-1716.86731	-654.7597	1094.08325	-1731.39929	-593.70837	957.64948	-1756.021	-500.16876	865.9809	-1718.73938	-559.07813	842.73187	-1749.9303	-497.41583	777.90668	-1755.82361	-686.92633	1408.11121	-1320.21387	-748.29858	1213.88867	-1237.271	-754.07562	1092.05322	-1225.94543	-758.36707	972.1474	-1205.71338	-717.73126	823.67682	-1226.87769	-775.37372	835.28882	-1193.74963	-753.66663	753.31586	-1188.37354	-599.60345	969.02283	-1582.48035	-593.61835	972.92889	-1363.80115	-755.73932	992.56024	-1545.11267	-742.44354	988.54224	-1378.49341	-677.07709	653.96869	-1632.37708	-690.31091	489.77069	-1608.93335	-757.3725	239.63689	-1599.46594	-784.8302	70.57368	-1549.49463	-829.4635	58.82745	-1507.05383	-642.41443	40.0045	-1539.09595	-546.09021	650.27057	-1302.78894	-491.38553	537.47717	-1328.23364	-586.10437	295.10889	-1339.7926	-661.82532	127.59927	-1388.14917	-707.43677	115.84777	-1434.2666	-530.74567	52.26178	-1389.93994	-713.46564	1703.42578	-1478.95923	NaN	NaN	NaN	NaN	NaN	NaN	NaN	NaN	NaN	NaN	NaN	NaN
